Started on 2012-11-30 19:48:12 - 2012 Nov 30

Checking File ....
File : /mnt/array1/www/htdocs/wwwroot/files/conversion_queue/13542760881266d.flv
File Exists : Yes
raw_output_for_stat : ffmpeg version N-44546-g66bdc58 Copyright (c) 2000-2012 the FFmpeg developers
  built on Sep 20 2012 14:29:12 with gcc 4.3.2 (Sourcery G++ Lite 2008q3-72)
  configuration: --prefix=/home/administrator/nas/usr/local --arch=arm --target-os=linux --enable-gpl --enable-libx264 --enable-libxvid --enable-cross-compile --cross-prefix=/usr/local/arm/4.3.2/bin/arm-linux- --extra-cflags=-I/home/administrator/nas/usr/local/include --extra-ldflags=-L/home/administrator/nas/usr/local/lib --extra-cflags=-static --extra-ldflags=-static --enable-libfaac --enable-nonfree
  libavutil      51. 73.101 / 51. 73.101
  libavcodec     54. 56.100 / 54. 56.100
  libavformat    54. 27.101 / 54. 27.101
  libavdevice    54.  2.100 / 54.  2.100
  libavfilter     3. 16.104 /  3. 16.104
  libswscale      2.  1.101 /  2.  1.101
  libswresample   0. 15.100 /  0. 15.100
  libpostproc    52.  0.100 / 52.  0.100
Input #0, flv, from '/mnt/array1/www/htdocs/wwwroot/files/conversion_queue/13542760881266d.flv':
  Metadata:
    audiodelay      : 0
    canSeekToEnd    : true
    encoder         : Lavf53.21.0
  Duration: 00:00:30.02, start: 0.000000, bitrate: 1696 kb/s
    Stream #0:0: Video: vp6f, yuv420p, 720x396, 1536 kb/s, 15 tbr, 1k tbn, 1k tbc
    Stream #0:1: Audio: mp3, 44100 Hz, stereo, s16, 128 kb/s
Output #0, null, to '/dev/null':
  Metadata:
    audiodelay      : 0
    canSeekToEnd    : true
    encoder         : Lavf54.27.101
    Stream #0:0: Video: vp6f, yuv420p, 720x396, q=2-31, 1536 kb/s, 90k tbn, 1k tbc
    Stream #0:1: Audio: mp3, 44100 Hz, stereo, 128 kb/s
Stream mapping:
  Stream #0:0 -> #0:0 (copy)
  Stream #0:1 -> #0:1 (copy)
Press [q] to stop, [?] for help
frame=  450 fps=0.0 q=-1.0 Lsize=       0kB time=00:00:30.01 bitrate=   0.0kbits/s    
video:5725kB audio:468kB subtitle:0 global headers:0kB muxing overhead -100.000000%


Preparing file...
format : flv
duration : 30.02
size : 6367759
bitrate : 1657
video_width : 720
video_height : 396
video_wh_ratio : 1.81818181818
video_codec : vp6f
video_rate : 14.9900066622
video_bitrate : 1525
video_color : N/A
audio_codec : mp3
audio_bitrate : 124
audio_rate : 44100
audio_channels : stereo
path : /mnt/array1/www/htdocs/wwwroot/files/conversion_queue/13542760881266d.flv

Converting Video
Conversion Command : /usr/local/bin/ffmpeg -i /mnt/array1/www/htdocs/wwwroot/files/conversion_queue/13542760881266d.flv  -f flv  -vcodec libx264 -r 25  -ab 128000  -ar 22050  /mnt/array1/www/htdocs/wwwroot/files/videos/13542760881266d.flv  2> /mnt/array1/www/htdocs/wwwroot/files/temp/13542760965bb36.tmp


Conversion Details

Flv Quick Conv;raw_output_for_stat : ffmpeg version N-44546-g66bdc58 Copyright (c) 2000-2012 the FFmpeg developers
  built on Sep 20 2012 14:29:12 with gcc 4.3.2 (Sourcery G++ Lite 2008q3-72)
  configuration: --prefix=/home/administrator/nas/usr/local --arch=arm --target-os=linux --enable-gpl --enable-libx264 --enable-libxvid --enable-cross-compile --cross-prefix=/usr/local/arm/4.3.2/bin/arm-linux- --extra-cflags=-I/home/administrator/nas/usr/local/include --extra-ldflags=-L/home/administrator/nas/usr/local/lib --extra-cflags=-static --extra-ldflags=-static --enable-libfaac --enable-nonfree
  libavutil      51. 73.101 / 51. 73.101
  libavcodec     54. 56.100 / 54. 56.100
  libavformat    54. 27.101 / 54. 27.101
  libavdevice    54.  2.100 / 54.  2.100
  libavfilter     3. 16.104 /  3. 16.104
  libswscale      2.  1.101 /  2.  1.101
  libswresample   0. 15.100 /  0. 15.100
  libpostproc    52.  0.100 / 52.  0.100
Input #0, flv, from '/mnt/array1/www/htdocs/wwwroot/files/videos/13542760881266d.flv':
  Metadata:
    audiodelay      : 0
    canSeekToEnd    : true
    encoder         : Lavf53.21.0
  Duration: 00:00:30.02, start: 0.000000, bitrate: 1696 kb/s
    Stream #0:0: Video: vp6f, yuv420p, 720x396, 1536 kb/s, 15 tbr, 1k tbn, 1k tbc
    Stream #0:1: Audio: mp3, 44100 Hz, stereo, s16, 128 kb/s
Output #0, null, to '/dev/null':
  Metadata:
    audiodelay      : 0
    canSeekToEnd    : true
    encoder         : Lavf54.27.101
    Stream #0:0: Video: vp6f, yuv420p, 720x396, q=2-31, 1536 kb/s, 90k tbn, 1k tbc
    Stream #0:1: Audio: mp3, 44100 Hz, stereo, 128 kb/s
Stream mapping:
  Stream #0:0 -> #0:0 (copy)
  Stream #0:1 -> #0:1 (copy)
Press [q] to stop, [?] for help
frame=  450 fps=0.0 q=-1.0 Lsize=       0kB time=00:00:30.01 bitrate=   0.0kbits/s    
video:5725kB audio:468kB subtitle:0 global headers:0kB muxing overhead -100.000000%

raw_output_for_stat : ffmpeg version N-44546-g66bdc58 Copyright (c) 2000-2012 the FFmpeg developers
  built on Sep 20 2012 14:29:12 with gcc 4.3.2 (Sourcery G++ Lite 2008q3-72)
  configuration: --prefix=/home/administrator/nas/usr/local --arch=arm --target-os=linux --enable-gpl --enable-libx264 --enable-libxvid --enable-cross-compile --cross-prefix=/usr/local/arm/4.3.2/bin/arm-linux- --extra-cflags=-I/home/administrator/nas/usr/local/include --extra-ldflags=-L/home/administrator/nas/usr/local/lib --extra-cflags=-static --extra-ldflags=-static --enable-libfaac --enable-nonfree
  libavutil      51. 73.101 / 51. 73.101
  libavcodec     54. 56.100 / 54. 56.100
  libavformat    54. 27.101 / 54. 27.101
  libavdevice    54.  2.100 / 54.  2.100
  libavfilter     3. 16.104 /  3. 16.104
  libswscale      2.  1.101 /  2.  1.101
  libswresample   0. 15.100 /  0. 15.100
  libpostproc    52.  0.100 / 52.  0.100
Input #0, flv, from '/mnt/array1/www/htdocs/wwwroot/files/videos/13542760881266d.flv':
  Metadata:
    audiodelay      : 0
    canSeekToEnd    : true
    encoder         : Lavf53.21.0
  Duration: 00:00:30.02, start: 0.000000, bitrate: 1696 kb/s
    Stream #0:0: Video: vp6f, yuv420p, 720x396, 1536 kb/s, 15 tbr, 1k tbn, 1k tbc
    Stream #0:1: Audio: mp3, 44100 Hz, stereo, s16, 128 kb/s
Output #0, null, to '/dev/null':
  Metadata:
    audiodelay      : 0
    canSeekToEnd    : true
    encoder         : Lavf54.27.101
    Stream #0:0: Video: vp6f, yuv420p, 720x396, q=2-31, 1536 kb/s, 90k tbn, 1k tbc
    Stream #0:1: Audio: mp3, 44100 Hz, stereo, 128 kb/s
Stream mapping:
  Stream #0:0 -> #0:0 (copy)
  Stream #0:1 -> #0:1 (copy)
Press [q] to stop, [?] for help
frame=  450 fps=0.0 q=-1.0 Lsize=       0kB time=00:00:30.01 bitrate=   0.0kbits/s    
video:5725kB audio:468kB subtitle:0 global headers:0kB muxing overhead -100.000000%



output_format : flv
output_duration : 30.02
output_size : 6367759
output_bitrate : 1657
output_video_width : 720
output_video_height : 396
output_video_wh_ratio : 1.81818181818
output_video_codec : vp6f
output_video_rate : 14.9900066622
output_video_bitrate : 1525
output_video_color : N/A
output_audio_codec : mp3
output_audio_bitrate : 124
output_audio_rate : 44100
output_audio_channels : stereo
output_path : /mnt/array1/www/htdocs/wwwroot/files/videos/13542760881266d.flv


Time Took : 7.0371 seconds

conversion_status : completed
